<svg id="Слой_1" data-name="Слой 1" xmlns="http://www.w3.org/2000/svg" viewBox="0 0 32.22 35.56"><defs><style>.cls-1{fill:#495563;}</style></defs><title>Безымянный-9</title><path class="cls-1" d="M28.8,23.92,21.17,21.5a6.66,6.66,0,0,1-5.06,2.93,6.66,6.66,0,0,1-5.06-2.93L3.42,23.92A3.43,3.43,0,0,0,0,27.17c.23.34.48.66.74,1a19.66,19.66,0,0,0,30.74,0c.26-.33.51-.65.74-1A3.43,3.43,0,0,0,28.8,23.92Z"></path><path class="cls-1" d="M8.6,11.92A6.89,6.89,0,0,0,8.89,13a1.53,1.53,0,0,0-.29,1.61,1.78,1.78,0,0,0,.83,1.08,13.25,13.25,0,0,0,2.65,5.44,5.47,5.47,0,0,0,4,2.25,5.47,5.47,0,0,0,4-2.25,13.42,13.42,0,0,0,2.65-5.42,1.73,1.73,0,0,0,.84-1.13A1.51,1.51,0,0,0,23.32,13a6.09,6.09,0,0,0,.3-1.12c.24-1.71.6-3.48-.67-5.34a4.33,4.33,0,0,0-.38-.47C21,3.55,16.24,3.33,15.47,3.27a5.47,5.47,0,0,1-2.67-.79A3.07,3.07,0,0,1,11.39,0C9.43,2.18,9,3.35,9.08,5.16A2.8,2.8,0,0,0,9.41,6.4a1.24,1.24,0,0,0-.14.18C8,8.44,8.36,10.21,8.6,11.92Z"></path></svg>
