<svg id="Слой_1" data-name="Слой 1" xmlns="http://www.w3.org/2000/svg" viewBox="0 0 20.48 28.45"><defs><style>.cls-1{fill:#495563;}</style></defs><title>Безымянный-9</title><path class="cls-1" d="M18.8,10.74V8.58a8.57,8.57,0,1,0-17.13,0V9H3.05V8.58a7.19,7.19,0,1,1,14.37,0v1.76H3.05a3.43,3.43,0,0,0-1.37.39A3.21,3.21,0,0,0,0,13.54V25.23a3.22,3.22,0,0,0,3.22,3.22h14a3.23,3.23,0,0,0,3.22-3.22V13.54A3.21,3.21,0,0,0,18.8,10.74ZM7.34,25.45l1.19-5a3.11,3.11,0,0,1-1.4-2.13,4,4,0,0,1,0-.5,3.45,3.45,0,0,1,.15-1,3.15,3.15,0,0,1,6.15,1,2.56,2.56,0,0,1,0,.39l0,.18A3.17,3.17,0,0,1,12,20.45l1.19,5Z"></path></svg>