<svg width="12" height="12" viewBox="0 0 12 12" fill="none" xmlns="http://www.w3.org/2000/svg">
<path fill-rule="evenodd" clip-rule="evenodd" d="M12 12C12 12 12 11.175 11.9312 10.7437C11.875 10.4031 11.4031 9.95312 9.39688 9.21562C7.42188 8.49062 7.54375 8.84375 7.54375 7.50938C7.54375 6.64375 7.98438 7.14688 8.26562 5.50313C8.375 4.85625 8.4625 5.2875 8.7 4.25C8.825 3.70625 8.61563 3.66563 8.64062 3.40625C8.66562 3.14687 8.69063 2.91563 8.7375 2.38438C8.79375 1.72813 8.18437 0 6 0C3.81562 0 3.20625 1.72813 3.26562 2.3875C3.3125 2.91563 3.3375 3.15 3.3625 3.40937C3.3875 3.66875 3.17812 3.70938 3.30312 4.25313C3.54062 5.2875 3.62812 4.85625 3.7375 5.50625C4.01875 7.15 4.45937 6.64687 4.45937 7.5125C4.45937 8.85 4.58125 8.49687 2.60625 9.21875C0.6 9.95312 0.125 10.4062 0.071875 10.7469C0 11.175 0 12 0 12H6H12Z" fill="#707683"/>
<mask id="mask0" mask-type="alpha" maskUnits="userSpaceOnUse" x="0" y="0" width="12" height="12">
<path fill-rule="evenodd" clip-rule="evenodd" d="M12 12C12 12 12 11.175 11.9312 10.7437C11.875 10.4031 11.4031 9.95312 9.39688 9.21562C7.42188 8.49062 7.54375 8.84375 7.54375 7.50938C7.54375 6.64375 7.98438 7.14688 8.26562 5.50313C8.375 4.85625 8.4625 5.2875 8.7 4.25C8.825 3.70625 8.61563 3.66563 8.64062 3.40625C8.66562 3.14687 8.69063 2.91563 8.7375 2.38438C8.79375 1.72813 8.18437 0 6 0C3.81562 0 3.20625 1.72813 3.26562 2.3875C3.3125 2.91563 3.3375 3.15 3.3625 3.40937C3.3875 3.66875 3.17812 3.70938 3.30312 4.25313C3.54062 5.2875 3.62812 4.85625 3.7375 5.50625C4.01875 7.15 4.45937 6.64687 4.45937 7.5125C4.45937 8.85 4.58125 8.49687 2.60625 9.21875C0.6 9.95312 0.125 10.4062 0.071875 10.7469C0 11.175 0 12 0 12H6H12Z" fill="white"/>
</mask>
<g mask="url(#mask0)">
<rect width="12" height="12" fill="#707683"/>
</g>
</svg>
