<svg width="12" height="12" viewBox="0 0 12 12" fill="none" xmlns="http://www.w3.org/2000/svg">
<path fill-rule="evenodd" clip-rule="evenodd" d="M1.5 0.275V11.725C1.5 11.8781 1.62188 12 1.775 12H10.225C10.3781 12 10.5 11.8781 10.5 11.725V0.275C10.5 0.121875 10.3781 0 10.225 0H1.775C1.62188 0 1.5 0.121875 1.5 0.275ZM6.00003 11.675C5.76566 11.675 5.57503 11.4875 5.57503 11.2531C5.57503 11.0188 5.76566 10.8281 6.00003 10.8281C6.23128 10.8281 6.42191 11.0188 6.42191 11.2531C6.42503 11.4875 6.23441 11.675 6.00003 11.675ZM2.50002 1.70625C2.50002 1.59687 2.58439 1.5 2.68752 1.5H9.28752C9.39377 1.5 9.50002 1.59687 9.50002 1.70625V10.3062C9.50002 10.4156 9.39377 10.5031 9.28752 10.5031H2.68752C2.58127 10.5031 2.50002 10.4156 2.50002 10.3062V1.70625Z" fill="#707683"/>
<mask id="mask0" mask-type="alpha" maskUnits="userSpaceOnUse" x="1" y="0" width="10" height="12">
<path fill-rule="evenodd" clip-rule="evenodd" d="M1.5 0.275V11.725C1.5 11.8781 1.62188 12 1.775 12H10.225C10.3781 12 10.5 11.8781 10.5 11.725V0.275C10.5 0.121875 10.3781 0 10.225 0H1.775C1.62188 0 1.5 0.121875 1.5 0.275ZM2.50002 1.70625C2.50002 1.59687 2.58439 1.5 2.68752 1.5H9.28752C9.39377 1.5 9.50002 1.59687 9.50002 1.70625V10.3062C9.50002 10.4156 9.39377 10.5031 9.28752 10.5031H2.68752C2.58127 10.5031 2.50002 10.4156 2.50002 10.3062V1.70625Z" fill="white"/>
</mask>
<g mask="url(#mask0)">
<rect width="12" height="12" fill="#707683"/>
</g>
</svg>
