<svg width="115" height="54" viewBox="0 0 115 54" fill="none" xmlns="http://www.w3.org/2000/svg">
<path d="M25.9841 24.9089L29.0607 23.1258C29.6094 24.419 30.5696 25.2812 32.3332 25.2812C34.0184 25.2812 34.4495 24.615 34.4495 24.0076C34.4495 23.0474 33.5677 22.6752 31.2162 22.0285C28.9039 21.3819 26.6308 20.2651 26.6308 17.2867C26.6308 14.2692 29.1783 12.5449 31.8629 12.5449C34.4299 12.5449 36.4287 13.7794 37.5653 16.0719L34.5475 17.8354C34.0184 16.7185 33.2738 16.0327 31.8433 16.0327C30.7263 16.0327 30.1776 16.5813 30.1776 17.2084C30.1776 17.9138 30.55 18.4036 32.9798 19.1482C35.3509 19.8536 37.9964 20.6765 37.9964 23.988C37.9964 27.0055 35.5861 28.769 32.196 28.769C28.9431 28.769 26.8659 27.2014 25.9841 24.9089Z" fill="#36464F"/>
<path d="M43.8162 20.5198V24.4583C43.8162 25.4184 44.6392 25.4967 46.1089 25.4184V28.4555C41.739 28.9062 40.4653 27.5933 40.4653 24.4583V20.5198H38.6821V17.3063H40.4653V15.1902L43.8162 14.1909V17.3063H46.1089V20.5198H43.8162Z" fill="#36464F"/>
<path d="M47.5003 22.8711C47.5003 19.5596 50.1261 16.9928 53.3987 16.9928C56.6712 16.9928 59.297 19.5596 59.297 22.8711C59.297 26.1825 56.6712 28.7494 53.3987 28.7494C50.1261 28.769 47.5003 26.2021 47.5003 22.8711ZM55.9657 22.8711C55.9657 21.2839 54.8487 20.2454 53.3987 20.2454C51.9486 20.2454 50.8316 21.2839 50.8316 22.8711C50.8316 24.4582 51.9486 25.4967 53.3987 25.4967C54.8487 25.4967 55.9657 24.4582 55.9657 22.8711Z" fill="#36464F"/>
<path d="M67.8799 17.0908V20.8725C66.5082 20.657 64.529 21.2056 64.529 23.4198V28.4555H61.1781V17.3064H64.529V19.2854C64.9797 17.7962 66.4886 17.0908 67.8799 17.0908Z" fill="#36464F"/>
<path d="M80.9308 18.188C80.9308 21.1468 78.5401 23.5373 75.4636 23.5373H73.1317V28.4358H69.5652V12.8584H75.4636C78.5597 12.8584 80.9308 15.2293 80.9308 18.188ZM77.384 18.188C77.384 17.0516 76.5806 16.1894 75.4832 16.1894H73.1513V20.2063H75.4832C76.5806 20.2063 77.384 19.3245 77.384 18.188Z" fill="#36464F"/>
<path d="M93.7269 17.3063V28.4554H90.376V27.4169C89.6314 28.2595 88.5536 28.7689 87.0643 28.7689C84.1445 28.7689 81.7343 26.2021 81.7343 22.8907C81.7343 19.5792 84.1445 17.0124 87.0643 17.0124C88.5536 17.0124 89.651 17.5218 90.376 18.3644V17.3259H93.7269V17.3063ZM90.376 22.8711C90.376 21.2056 89.2591 20.1475 87.7306 20.1475C86.2021 20.1475 85.0851 21.186 85.0851 22.8711C85.0851 24.5366 86.2021 25.5947 87.7306 25.5947C89.2591 25.5947 90.376 24.5562 90.376 22.8711Z" fill="#36464F"/>
<path d="M107.659 12.8584V28.4554H104.309V27.4169C103.564 28.2595 102.486 28.7689 100.997 28.7689C98.0771 28.7689 95.6668 26.2021 95.6668 22.8907C95.6668 19.5792 98.0771 17.0124 100.997 17.0124C102.486 17.0124 103.584 17.5218 104.309 18.3644V12.8584H107.659ZM104.309 22.8711C104.309 21.2056 103.192 20.1475 101.663 20.1475C100.135 20.1475 99.0177 21.186 99.0177 22.8711C99.0177 24.5366 100.135 25.5947 101.663 25.5947C103.192 25.5947 104.309 24.5562 104.309 22.8711Z" fill="#36464F"/>
<path d="M16.0184 17.0416C16.0184 17.2834 15.8975 17.5252 15.7075 17.6633L1.77028 27.6621C1.63211 27.7657 1.44214 27.783 1.26943 27.6966C1.09673 27.6103 1.01038 27.4549 1.01038 27.2822V14.9003C1.01038 14.5376 1.18308 14.1922 1.47668 13.985L15.2585 4.08982C15.3967 3.98621 15.5866 3.96894 15.7594 4.05529C15.9321 4.14163 16.0184 4.29705 16.0184 4.48701V17.0416Z" fill="url(#paint0_linear)"/>
<path d="M1.01038 27.4554C1.01038 27.6972 1.13127 27.9389 1.32124 28.0771L15.2585 38.0759C15.3967 38.1795 15.5866 38.1968 15.7594 38.1104C15.9321 38.0241 16.0184 37.8686 16.0184 37.6787V25.2968C16.0184 24.9341 15.8457 24.5887 15.5521 24.3815L1.77028 14.5036C1.63211 14.4 1.44214 14.3827 1.26943 14.469C1.09673 14.5554 1.01038 14.7108 1.01038 14.8835V27.4554Z" fill="url(#paint1_linear)"/>
<path opacity="0.8" d="M16.0184 37.8513C16.0184 38.0931 15.8975 38.3348 15.7075 38.473L1.77028 48.4718C1.63211 48.5754 1.44214 48.5926 1.26943 48.5063C1.09673 48.42 1.01038 48.2645 1.01038 48.0918V35.7099C1.01038 35.3473 1.18308 35.0019 1.47668 34.7947L15.2585 24.8995C15.3967 24.7959 15.5866 24.7786 15.7594 24.8649C15.9148 24.9513 16.0184 25.1067 16.0184 25.2967V37.8513Z" fill="url(#paint2_linear)"/>
<path d="M29.8248 36.1166C29.8248 36.4497 29.7073 36.724 29.4525 36.92C29.1978 37.1159 28.8646 37.2139 28.4531 37.2139C28.0024 37.2139 27.6497 37.1551 27.395 37.0375V36.6065C27.5517 36.6652 27.7281 36.724 27.9044 36.7632C28.1004 36.8024 28.2768 36.822 28.4531 36.822C28.7471 36.822 28.9822 36.7632 29.139 36.6456C29.2958 36.5281 29.3741 36.3713 29.3741 36.1754C29.3741 36.0382 29.3545 35.9402 29.2958 35.8423C29.237 35.7639 29.1586 35.6855 29.0214 35.6071C28.9038 35.5288 28.7079 35.4504 28.4531 35.3524C28.1004 35.2153 27.8261 35.0781 27.6889 34.9017C27.5321 34.7254 27.4537 34.4903 27.4537 34.216C27.4537 33.922 27.5713 33.6869 27.7869 33.5106C28.0024 33.3342 28.316 33.2362 28.6687 33.2362C29.0606 33.2362 29.4133 33.3146 29.7269 33.4518L29.5897 33.8437C29.2762 33.7065 28.9626 33.6477 28.6491 33.6477C28.4139 33.6477 28.218 33.7065 28.0808 33.8045C27.9436 33.9024 27.8849 34.0396 27.8849 34.2355C27.8849 34.3727 27.9044 34.4707 27.9632 34.5686C28.022 34.647 28.1004 34.7254 28.218 34.8038C28.3356 34.8822 28.5119 34.9605 28.7667 35.0389C29.1782 35.1761 29.4525 35.3328 29.6093 35.5092C29.7465 35.6463 29.8248 35.8619 29.8248 36.1166Z" fill="#36464F"/>
<path d="M33.4304 37.1552H32.9797V33.6871H31.7451V33.2952H34.6453V33.6871H33.4108V37.1552H33.4304Z" fill="#36464F"/>
<path d="M37.3104 35.5485V37.1552H36.8597V33.2756H37.9179C38.3882 33.2756 38.7409 33.3735 38.9761 33.5499C39.2112 33.7262 39.3092 34.0006 39.3092 34.3729C39.3092 34.8823 39.0545 35.235 38.5254 35.4113L39.5836 37.1552H39.0545L38.1139 35.5485H37.3104ZM37.3104 35.1566H37.9179C38.2314 35.1566 38.4666 35.0978 38.6234 34.9607C38.7801 34.8431 38.8389 34.6472 38.8389 34.3924C38.8389 34.1377 38.7605 33.9614 38.6038 33.8438C38.447 33.7262 38.2119 33.6675 37.8787 33.6675H37.2908V35.1566H37.3104Z" fill="#36464F"/>
<path d="M44.0121 37.1552H41.8566V33.2756H44.0121V33.6675H42.3073V34.9215H43.9141V35.3134H42.3073V36.7438H44.0121V37.1552Z" fill="#36464F"/>
<path d="M48.9308 37.1552L48.441 35.9208H46.8929L46.4226 37.1552H45.9719L47.5003 33.2756H47.8727L49.4012 37.1552H48.9308ZM48.3038 35.5093L47.8531 34.3141C47.7943 34.1573 47.7355 33.981 47.6767 33.7458C47.6375 33.9222 47.5787 34.0985 47.5003 34.3141L47.0496 35.5093H48.3038Z" fill="#36464F"/>
<path d="M53.2615 37.1552L51.9486 33.7262H51.929C51.9486 34.0006 51.9682 34.3141 51.9682 34.6864V37.1552H51.5566V33.2756H52.2425L53.477 36.4694H53.4966L54.7312 33.2756H55.3974V37.1552H54.9467V34.6668C54.9467 34.3729 54.9663 34.0789 54.9859 33.7262H54.9663L53.6338 37.1552H53.2615Z" fill="#36464F"/>
<path d="M62.0992 35.2154L63.1378 33.2756H63.6277L62.3344 35.6465V37.1552H61.8837V35.6661L60.5903 33.2756H61.0802L62.0992 35.2154Z" fill="#36464F"/>
<path d="M69.1341 35.2153C69.1341 35.8423 68.9774 36.3322 68.6638 36.6849C68.3503 37.0376 67.9192 37.2139 67.3509 37.2139C66.7826 37.2139 66.3319 37.0376 66.038 36.6849C65.744 36.3322 65.5677 35.8423 65.5677 35.2153C65.5677 34.5883 65.7245 34.0984 66.038 33.7457C66.3515 33.3931 66.7826 33.2167 67.3705 33.2167C67.9192 33.2167 68.3699 33.3931 68.6834 33.7457C68.9774 34.0984 69.1341 34.5883 69.1341 35.2153ZM66.0576 35.2153C66.0576 35.7444 66.1752 36.1362 66.3907 36.4106C66.6063 36.6849 66.9394 36.822 67.3705 36.822C67.8016 36.822 68.1151 36.6849 68.3503 36.4106C68.5854 36.1362 68.6834 35.7444 68.6834 35.2153C68.6834 34.6863 68.5659 34.2944 68.3503 34.0397C68.1347 33.7653 67.8016 33.6282 67.3901 33.6282C66.959 33.6282 66.6259 33.7653 66.4103 34.0397C66.1752 34.2944 66.0576 34.6863 66.0576 35.2153Z" fill="#36464F"/>
<path d="M74.5622 33.2756V35.7836C74.5622 36.2343 74.425 36.5674 74.1703 36.8221C73.9155 37.0769 73.5432 37.1944 73.0729 37.1944C72.6026 37.1944 72.2499 37.0769 71.9951 36.8221C71.7404 36.5674 71.6032 36.2147 71.6032 35.764V33.2756H72.0539V35.8032C72.0539 36.1167 72.1519 36.3715 72.3283 36.5478C72.5046 36.7242 72.7594 36.8025 73.1121 36.8025C73.4452 36.8025 73.7 36.7242 73.8763 36.5478C74.0527 36.3715 74.1507 36.1167 74.1507 35.8032V33.2756H74.5622Z" fill="#36464F"/>
<path d="M77.6583 35.5485V37.1552H77.2076V33.2756H78.2658C78.7361 33.2756 79.0888 33.3735 79.324 33.5499C79.5591 33.7262 79.6571 34.0006 79.6571 34.3729C79.6571 34.8823 79.4024 35.235 78.8733 35.4113L79.9315 37.1552H79.4024L78.4618 35.5485H77.6583ZM77.6583 35.1566H78.2658C78.5793 35.1566 78.8145 35.0978 78.9713 34.9607C79.128 34.8431 79.1868 34.6472 79.1868 34.3924C79.1868 34.1377 79.1084 33.9614 78.9517 33.8438C78.7949 33.7262 78.5598 33.6675 78.2266 33.6675H77.6388V35.1566H77.6583Z" fill="#36464F"/>
<path d="M87.4171 36.1166C87.4171 36.4497 87.2995 36.724 87.0447 36.92C86.79 37.1159 86.4569 37.2139 86.0454 37.2139C85.5947 37.2139 85.2419 37.1551 84.9872 37.0375V36.6065C85.1439 36.6652 85.3203 36.724 85.4967 36.7632C85.6926 36.8024 85.869 36.822 86.0454 36.822C86.3393 36.822 86.5744 36.7632 86.7312 36.6456C86.888 36.5281 86.9664 36.3713 86.9664 36.1754C86.9664 36.0382 86.9468 35.9402 86.888 35.8423C86.8292 35.7639 86.7508 35.6855 86.6136 35.6071C86.4961 35.5288 86.3001 35.4504 86.0454 35.3524C85.6926 35.2153 85.4183 35.0781 85.2811 34.9017C85.1244 34.7254 85.046 34.4903 85.046 34.216C85.046 33.922 85.1635 33.6869 85.3791 33.5106C85.5947 33.3342 85.9082 33.2362 86.2609 33.2362C86.6528 33.2362 87.0055 33.3146 87.3191 33.4518L87.1819 33.8437C86.8684 33.7065 86.5548 33.6477 86.2413 33.6477C86.0062 33.6477 85.8102 33.7065 85.673 33.8045C85.5359 33.9024 85.4771 34.0396 85.4771 34.2355C85.4771 34.3727 85.4967 34.4707 85.5555 34.5686C85.6142 34.647 85.6926 34.7254 85.8102 34.8038C85.9278 34.8822 86.1041 34.9605 86.3589 35.0389C86.7704 35.1761 87.0447 35.3328 87.2015 35.5092C87.3387 35.6463 87.4171 35.8619 87.4171 36.1166Z" fill="#36464F"/>
<path d="M91.0227 37.1552H90.572V33.6871H89.3571V33.2952H92.2572V33.6871H91.0227V37.1552Z" fill="#36464F"/>
<path d="M97.8225 35.2153C97.8225 35.8423 97.6658 36.3322 97.3522 36.6849C97.0387 37.0376 96.6076 37.2139 96.0393 37.2139C95.471 37.2139 95.0203 37.0376 94.7264 36.6849C94.4325 36.3322 94.2561 35.8423 94.2561 35.2153C94.2561 34.5883 94.4129 34.0984 94.7264 33.7457C95.0399 33.3931 95.471 33.2167 96.0589 33.2167C96.6076 33.2167 97.0583 33.3931 97.3718 33.7457C97.6658 34.0984 97.8225 34.5883 97.8225 35.2153ZM94.746 35.2153C94.746 35.7444 94.8636 36.1362 95.0791 36.4106C95.2947 36.6849 95.6278 36.822 96.0589 36.822C96.49 36.822 96.8036 36.6849 97.0387 36.4106C97.2543 36.1362 97.3718 35.7444 97.3718 35.2153C97.3718 34.6863 97.2543 34.2944 97.0387 34.0397C96.8231 33.7653 96.49 33.6282 96.0785 33.6282C95.6474 33.6282 95.3143 33.7653 95.0987 34.0397C94.844 34.2944 94.746 34.6863 94.746 35.2153Z" fill="#36464F"/>
<path d="M100.762 35.5485V37.1552H100.311V33.2756H101.369C101.84 33.2756 102.192 33.3735 102.427 33.5499C102.663 33.7262 102.761 34.0006 102.761 34.3729C102.761 34.8823 102.506 35.235 101.977 35.4113L103.035 37.1552H102.506L101.565 35.5485H100.762ZM100.762 35.1566H101.369C101.683 35.1566 101.918 35.0978 102.075 34.9607C102.231 34.8431 102.29 34.6472 102.29 34.3924C102.29 34.1377 102.212 33.9614 102.055 33.8438C101.898 33.7262 101.663 33.6675 101.33 33.6675H100.742V35.1566H100.762Z" fill="#36464F"/>
<path d="M107.464 37.1552H105.308V33.2756H107.464V33.6675H105.759V34.9215H107.366V35.3134H105.759V36.7438H107.464V37.1552Z" fill="#36464F"/>
<defs>
<linearGradient id="paint0_linear" x1="2.70865" y1="28.376" x2="14.3528" y2="3.40304" gradientUnits="userSpaceOnUse">
<stop stop-color="#FCB148"/>
<stop offset="0.0264794" stop-color="#FDBA46"/>
<stop offset="0.0724355" stop-color="#FFC244"/>
<stop offset="0.1618" stop-color="#FFC444"/>
<stop offset="0.8658" stop-color="#F8924F"/>
<stop offset="1" stop-color="#F8924F"/>
</linearGradient>
<linearGradient id="paint1_linear" x1="17.6318" y1="36.4372" x2="-0.632826" y2="16.1506" gradientUnits="userSpaceOnUse">
<stop stop-color="#AA80F9"/>
<stop offset="0.4777" stop-color="#A77FF8" stop-opacity="0.7"/>
<stop offset="0.9964" stop-color="#6165D7"/>
</linearGradient>
<linearGradient id="paint2_linear" x1="1.59933" y1="48.7026" x2="15.4599" y2="24.6934" gradientUnits="userSpaceOnUse">
<stop stop-color="#FF9085"/>
<stop offset="1" stop-color="#FB6FBB"/>
</linearGradient>
</defs>
</svg>
