<svg width="214" height="100" viewBox="0 0 214 100" fill="none" xmlns="http://www.w3.org/2000/svg">
<path d="M51.5164 48.8858L57.6159 45.3856C58.7038 47.9242 60.6075 49.6165 64.104 49.6165C67.4452 49.6165 68.2999 48.3088 68.2999 47.1165C68.2999 45.2318 66.5517 44.501 61.8895 43.2317C57.3051 41.9624 52.7984 39.7701 52.7984 33.9237C52.7984 28.0004 57.8491 24.6157 63.1716 24.6157C68.2611 24.6157 72.2239 27.0389 74.4772 31.539L68.4942 35.0007C67.4452 32.8083 65.9689 31.4621 63.1328 31.4621C60.9183 31.4621 59.8304 32.5391 59.8304 33.7699C59.8304 35.1545 60.5686 36.1161 65.3861 37.5777C70.0871 38.9623 75.332 40.5778 75.332 47.078C75.332 53.0013 70.5533 56.4629 63.8321 56.4629C57.3828 56.4629 53.2646 53.3859 51.5164 48.8858Z" fill="#36464F"/>
<path d="M86.8703 40.2702V48.0012C86.8703 49.8859 88.5021 50.0397 91.4159 49.8859V55.8476C82.7522 56.7323 80.2268 54.1552 80.2268 48.0012V40.2702H76.6914V33.9623H80.2268V29.8083L86.8703 27.8467V33.9623H91.4159V40.2702H86.8703V40.2702Z" fill="#36464F"/>
<path d="M94.1746 44.8855C94.1746 38.3853 99.3806 33.3467 105.869 33.3467C112.357 33.3467 117.563 38.3853 117.563 44.8855C117.563 51.3857 112.357 56.4244 105.869 56.4244C99.3806 56.4628 94.1746 51.4242 94.1746 44.8855ZM110.958 44.8855C110.958 41.77 108.744 39.7315 105.869 39.7315C102.994 39.7315 100.779 41.77 100.779 44.8855C100.779 48.001 102.994 50.0395 105.869 50.0395C108.744 50.0395 110.958 48.001 110.958 44.8855Z" fill="#36464F"/>
<path d="M134.579 33.5391V40.9624C131.86 40.5393 127.936 41.6163 127.936 45.9626V55.8475H121.292V33.9622H127.936V37.8469C128.829 34.9237 131.821 33.5391 134.579 33.5391Z" fill="#36464F"/>
<path d="M160.454 35.6928C160.454 41.5007 155.714 46.1932 149.615 46.1932H144.992V55.8089H137.921V25.231H149.615C155.753 25.231 160.454 29.885 160.454 35.6928ZM153.422 35.6928C153.422 33.462 151.829 31.7696 149.654 31.7696H145.03V39.6545H149.654C151.829 39.6545 153.422 37.9237 153.422 35.6928Z" fill="#36464F"/>
<path d="M185.824 33.9622V55.8475H179.18V53.809C177.704 55.4629 175.567 56.4629 172.615 56.4629C166.826 56.4629 162.047 51.4243 162.047 44.9241C162.047 38.4239 166.826 33.3853 172.615 33.3853C175.567 33.3853 177.743 34.3853 179.18 36.0392V34.0007H185.824V33.9622ZM179.18 44.8856C179.18 41.6163 176.966 39.5393 173.935 39.5393C170.905 39.5393 168.691 41.5778 168.691 44.8856C168.691 48.155 170.905 50.232 173.935 50.232C176.966 50.232 179.18 48.1934 179.18 44.8856Z" fill="#36464F"/>
<path d="M213.447 25.231V55.8474H206.803V53.8088C205.327 55.4627 203.19 56.4628 200.237 56.4628C194.449 56.4628 189.67 51.4241 189.67 44.9239C189.67 38.4237 194.449 33.3851 200.237 33.3851C203.19 33.3851 205.366 34.3851 206.803 36.039V25.231H213.447ZM206.803 44.8855C206.803 41.6161 204.589 39.5391 201.558 39.5391C198.528 39.5391 196.313 41.5777 196.313 44.8855C196.313 48.1548 198.528 50.2318 201.558 50.2318C204.589 50.2318 206.803 48.1933 206.803 44.8855Z" fill="#36464F"/>
<path d="M33.7614 29.0381C33.7614 29.5766 33.4895 30.1151 33.0621 30.4228L1.70944 52.6928C1.39863 52.9235 0.971272 52.962 0.582763 52.7697C0.194254 52.5774 0 52.2312 0 51.8466V24.2687C0 23.461 0.388509 22.6918 1.04897 22.2302L32.052 0.191027C32.3628 -0.03975 32.7902 -0.0782128 33.1787 0.114101C33.5672 0.306415 33.7614 0.652581 33.7614 1.07567V29.0381Z" fill="url(#paint0_linear)"/>
<path d="M0 52.2317C0 52.7702 0.271956 53.3087 0.699316 53.6164L32.052 75.8864C32.3628 76.1172 32.7902 76.1556 33.1787 75.9633C33.5672 75.771 33.7614 75.4248 33.7614 75.0017V47.4239C33.7614 46.6162 33.3729 45.8469 32.7124 45.3854L1.70944 23.3846C1.39863 23.1539 0.971272 23.1154 0.582763 23.3077C0.194254 23.5 0 23.8462 0 24.2308V52.2317Z" fill="url(#paint1_linear)"/>
<path opacity="0.8" d="M33.7614 75.3863C33.7614 75.9248 33.4895 76.4632 33.0621 76.7709L1.70944 99.0409C1.39863 99.2717 0.971272 99.3102 0.582763 99.1178C0.194254 98.9255 0 98.5794 0 98.1947V70.6169C0 69.8092 0.388509 69.0399 1.04897 68.5784L32.052 46.5392C32.3628 46.3084 32.7902 46.2699 33.1787 46.4622C33.5283 46.6546 33.7614 47.0007 33.7614 47.4238V75.3863Z" fill="url(#paint2_linear)"/>
<path d="M59.131 70.8869C59.131 71.5408 58.8979 72.0793 58.3928 72.4639C57.8878 72.8485 57.2273 73.0409 56.4114 73.0409C55.5178 73.0409 54.8185 72.9255 54.3135 72.6947V71.8485C54.6243 71.9639 54.9739 72.0793 55.3236 72.1562C55.7121 72.2331 56.0618 72.2716 56.4114 72.2716C56.9942 72.2716 57.4604 72.1562 57.7712 71.9254C58.082 71.6947 58.2374 71.387 58.2374 71.0023C58.2374 70.7331 58.1986 70.5408 58.082 70.3485C57.9655 70.1946 57.81 70.0408 57.5381 69.8869C57.305 69.7331 56.9165 69.5792 56.4114 69.3869C55.7121 69.1176 55.1682 68.8484 54.8962 68.5022C54.5854 68.1561 54.43 67.6945 54.43 67.1561C54.43 66.5791 54.6631 66.1176 55.0905 65.7714C55.5179 65.4252 56.1395 65.2329 56.8388 65.2329C57.6158 65.2329 58.3151 65.3868 58.9367 65.656L58.6648 66.4253C58.0432 66.156 57.4215 66.0406 56.7999 66.0406C56.3337 66.0406 55.9452 66.156 55.6733 66.3483C55.4013 66.5406 55.2847 66.8099 55.2847 67.1945C55.2847 67.4637 55.3236 67.6561 55.4401 67.8484C55.5567 68.0022 55.7121 68.1561 55.9452 68.3099C56.1783 68.4638 56.528 68.6176 57.033 68.7715C57.8489 69.0407 58.3928 69.3484 58.7036 69.6946C58.9756 69.9638 59.131 70.3869 59.131 70.8869Z" fill="#36464F"/>
<path d="M66.2794 72.9248H65.3858V66.1169H62.9382V65.3477H68.6882V66.1169H66.2406V72.9248H66.2794Z" fill="#36464F"/>
<path d="M73.9719 69.7708V72.9247H73.0784V65.3091H75.1763C76.1087 65.3091 76.808 65.5014 77.2743 65.8476C77.7405 66.1937 77.9347 66.7322 77.9347 67.463C77.9347 68.463 77.4297 69.1554 76.3807 69.5015L78.4786 72.9247H77.4297L75.5648 69.7708H73.9719ZM73.9719 69.0015H75.1763C75.7979 69.0015 76.2641 68.8861 76.5749 68.6169C76.8857 68.3861 77.0023 68.0015 77.0023 67.5015C77.0023 67.0014 76.8469 66.6553 76.5361 66.4245C76.2253 66.1937 75.7591 66.0783 75.0986 66.0783H73.9331V69.0015H73.9719Z" fill="#36464F"/>
<path d="M87.2589 72.9247H82.9854V65.3091H87.2589V66.0783H83.8789V68.54H87.0647V69.3092H83.8789V72.117H87.2589V72.9247Z" fill="#36464F"/>
<path d="M97.0108 72.9247L96.0395 70.5016H92.9703L92.0379 72.9247H91.1443L94.1747 65.3091H94.9128L97.9432 72.9247H97.0108ZM95.7676 69.6938L94.874 67.3476C94.7574 67.0399 94.6409 66.6937 94.5243 66.2322C94.4466 66.5784 94.3301 66.9245 94.1747 67.3476L93.2811 69.6938H95.7676Z" fill="#36464F"/>
<path d="M105.597 72.9247L102.994 66.1937H102.955C102.994 66.7322 103.032 67.3476 103.032 68.0784V72.9247H102.217V65.3091H103.576L106.024 71.5785H106.063L108.51 65.3091H109.831V72.9247H108.938V68.0399C108.938 67.463 108.977 66.8861 109.015 66.1937H108.977L106.335 72.9247H105.597Z" fill="#36464F"/>
<path d="M123.118 69.1169L125.178 65.3091H126.149L123.585 69.9631V72.9247H122.691V70.0015L120.127 65.3091H121.098L123.118 69.1169Z" fill="#36464F"/>
<path d="M137.066 69.1171C137.066 70.3479 136.755 71.3094 136.134 72.0018C135.512 72.6941 134.657 73.0403 133.531 73.0403C132.404 73.0403 131.51 72.6941 130.928 72.0018C130.345 71.3094 129.995 70.3479 129.995 69.1171C129.995 67.8862 130.306 66.9247 130.928 66.2323C131.549 65.54 132.404 65.1938 133.569 65.1938C134.657 65.1938 135.551 65.54 136.172 66.2323C136.755 66.9247 137.066 67.8862 137.066 69.1171ZM130.966 69.1171C130.966 70.1555 131.199 70.9248 131.627 71.4633C132.054 72.0018 132.715 72.271 133.569 72.271C134.424 72.271 135.046 72.0018 135.512 71.4633C135.978 70.9248 136.172 70.1555 136.172 69.1171C136.172 68.0786 135.939 67.3093 135.512 66.8093C135.085 66.2708 134.424 66.0016 133.608 66.0016C132.754 66.0016 132.093 66.2708 131.666 66.8093C131.199 67.3093 130.966 68.0786 130.966 69.1171Z" fill="#36464F"/>
<path d="M147.828 65.3091V70.2323C147.828 71.117 147.556 71.7708 147.051 72.2709C146.546 72.7709 145.807 73.0016 144.875 73.0016C143.943 73.0016 143.243 72.7709 142.738 72.2709C142.233 71.7708 141.961 71.0785 141.961 70.1939V65.3091H142.855V70.2708C142.855 70.8862 143.049 71.3862 143.399 71.7324C143.748 72.0785 144.253 72.2324 144.953 72.2324C145.613 72.2324 146.118 72.0785 146.468 71.7324C146.818 71.3862 147.012 70.8862 147.012 70.2708V65.3091H147.828V65.3091Z" fill="#36464F"/>
<path d="M153.966 69.7708V72.9247H153.073V65.3091H155.17C156.103 65.3091 156.802 65.5014 157.268 65.8476C157.735 66.1937 157.929 66.7322 157.929 67.463C157.929 68.463 157.424 69.1554 156.375 69.5015L158.473 72.9247H157.424L155.559 69.7708H153.966ZM153.966 69.0015H155.17C155.792 69.0015 156.258 68.8861 156.569 68.6169C156.88 68.3861 156.996 68.0015 156.996 67.5015C156.996 67.0014 156.841 66.6553 156.53 66.4245C156.219 66.1937 155.753 66.0783 155.093 66.0783H153.927V69.0015H153.966Z" fill="#36464F"/>
<path d="M173.314 70.8862C173.314 71.5401 173.081 72.0786 172.576 72.4632C172.071 72.8478 171.41 73.0401 170.594 73.0401C169.701 73.0401 169.001 72.9247 168.496 72.694V71.8478C168.807 71.9632 169.157 72.0786 169.506 72.1555C169.895 72.2324 170.245 72.2709 170.594 72.2709C171.177 72.2709 171.643 72.1555 171.954 71.9247C172.265 71.6939 172.42 71.3862 172.42 71.0016C172.42 70.7324 172.381 70.54 172.265 70.3477C172.148 70.1939 171.993 70.04 171.721 69.8862C171.488 69.7323 171.099 69.5785 170.594 69.3862C169.895 69.1169 169.351 68.8477 169.079 68.5015C168.768 68.1554 168.613 67.6938 168.613 67.1553C168.613 66.5784 168.846 66.1168 169.273 65.7707C169.701 65.4245 170.322 65.2322 171.022 65.2322C171.799 65.2322 172.498 65.386 173.12 65.6553L172.848 66.4245C172.226 66.1553 171.604 66.0399 170.983 66.0399C170.517 66.0399 170.128 66.1553 169.856 66.3476C169.584 66.5399 169.468 66.8091 169.468 67.1938C169.468 67.463 169.506 67.6553 169.623 67.8476C169.74 68.0015 169.895 68.1554 170.128 68.3092C170.361 68.4631 170.711 68.6169 171.216 68.7708C172.032 69.04 172.576 69.3477 172.886 69.6939C173.158 69.9631 173.314 70.3862 173.314 70.8862Z" fill="#36464F"/>
<path d="M180.462 72.9248H179.569V66.1169H177.16V65.3477H182.91V66.1169H180.462V72.9248Z" fill="#36464F"/>
<path d="M193.944 69.1171C193.944 70.3479 193.633 71.3094 193.011 72.0018C192.39 72.6941 191.535 73.0403 190.408 73.0403C189.282 73.0403 188.388 72.6941 187.805 72.0018C187.222 71.3094 186.873 70.3479 186.873 69.1171C186.873 67.8862 187.184 66.9247 187.805 66.2323C188.427 65.54 189.282 65.1938 190.447 65.1938C191.535 65.1938 192.428 65.54 193.05 66.2323C193.633 66.9247 193.944 67.8862 193.944 69.1171ZM187.844 69.1171C187.844 70.1555 188.077 70.9248 188.505 71.4633C188.932 72.0018 189.592 72.271 190.447 72.271C191.302 72.271 191.923 72.0018 192.39 71.4633C192.817 70.9248 193.05 70.1555 193.05 69.1171C193.05 68.0786 192.817 67.3093 192.39 66.8093C191.962 66.2708 191.302 66.0016 190.486 66.0016C189.631 66.0016 188.971 66.2708 188.543 66.8093C188.038 67.3093 187.844 68.0786 187.844 69.1171Z" fill="#36464F"/>
<path d="M199.771 69.7708V72.9247H198.877V65.3091H200.975C201.908 65.3091 202.607 65.5014 203.073 65.8476C203.54 66.1937 203.734 66.7322 203.734 67.463C203.734 68.463 203.229 69.1554 202.18 69.5015L204.278 72.9247H203.229L201.364 69.7708H199.771ZM199.771 69.0015H200.975C201.597 69.0015 202.063 68.8861 202.374 68.6169C202.685 68.3861 202.801 68.0015 202.801 67.5015C202.801 67.0014 202.646 66.6553 202.335 66.4245C202.024 66.1937 201.558 66.0783 200.898 66.0783H199.732V69.0015H199.771Z" fill="#36464F"/>
<path d="M213.058 72.9247H208.785V65.3091H213.058V66.0783H209.678V68.54H212.864V69.3092H209.678V72.117H213.058V72.9247Z" fill="#36464F"/>
<defs>
<linearGradient id="paint0_linear" x1="3.82036" y1="54.2827" x2="29.5887" y2="-1.5352" gradientUnits="userSpaceOnUse">
<stop stop-color="#FCB148"/>
<stop offset="0.0264794" stop-color="#FDBA46"/>
<stop offset="0.0724355" stop-color="#FFC244"/>
<stop offset="0.1618" stop-color="#FFC444"/>
<stop offset="0.8658" stop-color="#F8924F"/>
<stop offset="1" stop-color="#F8924F"/>
</linearGradient>
<linearGradient id="paint1_linear" x1="37.3909" y1="72.2367" x2="-3.24498" y2="26.6506" gradientUnits="userSpaceOnUse">
<stop stop-color="#AA80F9"/>
<stop offset="0.4777" stop-color="#A77FF8" stop-opacity="0.7"/>
<stop offset="0.9964" stop-color="#6165D7"/>
</linearGradient>
<linearGradient id="paint2_linear" x1="1.32489" y1="99.555" x2="32.0416" y2="45.8152" gradientUnits="userSpaceOnUse">
<stop stop-color="#FF9085"/>
<stop offset="1" stop-color="#FB6FBB"/>
</linearGradient>
</defs>
</svg>
