<svg width="13" height="16" viewBox="0 0 13 16" fill="none" xmlns="http://www.w3.org/2000/svg">
<path d="M10.875 11.0769V11.2826L11.0197 11.4287L12.5 12.9236V13.0385H0.5V12.9236L1.98028 11.4287L2.125 11.2826V11.0769V6.97436C2.125 4.61799 3.34466 2.7662 5.3976 2.27499L5.78125 2.1832V1.78872V1.23077C5.78125 0.821248 6.10638 0.5 6.5 0.5C6.89362 0.5 7.21875 0.821248 7.21875 1.23077V1.78872V2.18288L7.60201 2.2749C9.64752 2.76604 10.875 4.62664 10.875 6.97436V11.0769ZM7.51026 14.859C7.32566 15.2388 6.93869 15.5 6.5 15.5C6.05637 15.5 5.6712 15.2393 5.48827 14.859H7.51026Z" stroke="white"/>
</svg>
